<svg width="19" height="19" viewBox="0 0 19 19" fill="none" xmlns="http://www.w3.org/2000/svg">
<mask id="mask0_579_394" style="mask-type:alpha" maskUnits="userSpaceOnUse" x="0" y="0" width="19" height="19">
<g clip-path="url(#clip0_579_394)">
<path d="M8.9442 2.9632C9.13252 2.48883 9.80394 2.48882 9.99225 2.9632L11.5659 6.9274L15.8804 7.16181C16.3981 7.18995 16.6066 7.84306 16.2009 8.16593L12.8623 10.823L13.9688 14.9079C14.1031 15.4036 13.5588 15.806 13.1243 15.5325L9.46823 13.2307L5.81216 15.5325C5.37759 15.806 4.83332 15.4036 4.96758 14.9079L6.07415 10.823L2.73555 8.16593C2.32989 7.84306 2.53836 7.18995 3.05606 7.16181L7.37058 6.9274L8.9442 2.9632Z" fill="black"/>
</g>
</mask>
<g mask="url(#mask0_579_394)">
<rect x="0.45166" y="0.515625" width="18.0416" height="18.0416" fill="#FFBE45"/>
</g>
<defs>
<clipPath id="clip0_579_394">
<rect width="18.0416" height="18.0416" fill="white" transform="translate(0.450195 0.515625)"/>
</clipPath>
</defs>
</svg>
