<svg width="19" height="19" viewBox="0 0 19 19" fill="none" xmlns="http://www.w3.org/2000/svg">
<mask id="mask0_579_543" style="mask-type:alpha" maskUnits="userSpaceOnUse" x="0" y="0" width="19" height="19">
<g clip-path="url(#clip0_579_543)">
<path d="M9.43859 3.23957C9.62691 2.7652 10.2983 2.76519 10.4866 3.23957L12.0603 7.20376L16.3748 7.43818C16.8925 7.46631 17.101 8.11943 16.6953 8.4423L13.3567 11.0994L14.4632 15.1842C14.5975 15.6799 14.0532 16.0824 13.6186 15.8088L9.96262 13.5071L6.30654 15.8088C5.87197 16.0824 5.3277 15.6799 5.46197 15.1842L6.56854 11.0994L3.22994 8.4423C2.82427 8.11943 3.03274 7.46631 3.55045 7.43818L7.86496 7.20376L9.43859 3.23957Z" fill="black"/>
</g>
</mask>
<g mask="url(#mask0_579_543)">
<rect x="0.941895" y="0.791992" width="18.0416" height="18.0416" fill="#FFBE45"/>
</g>
<defs>
<clipPath id="clip0_579_543">
<rect width="18.0416" height="18.0416" fill="white" transform="translate(0.941895 0.791992)"/>
</clipPath>
</defs>
</svg>
