<svg width="19" height="19" viewBox="0 0 19 19" fill="none" xmlns="http://www.w3.org/2000/svg">
<mask id="mask0_579_612" style="mask-type:alpha" maskUnits="userSpaceOnUse" x="0" y="0" width="19" height="19">
<g clip-path="url(#clip0_579_612)">
<path d="M8.63341 3.23957C8.82173 2.7652 9.49315 2.76519 9.68146 3.23957L11.2551 7.20376L15.5697 7.43818C16.0873 7.46631 16.2958 8.11943 15.8901 8.4423L12.5515 11.0994L13.658 15.1842C13.7923 15.6799 13.248 16.0824 12.8135 15.8088L9.15744 13.5071L5.50136 15.8088C5.0668 16.0824 4.52253 15.6799 4.65679 15.1842L5.76336 11.0994L2.42476 8.4423C2.0191 8.11943 2.22757 7.46631 2.74527 7.43818L7.05979 7.20376L8.63341 3.23957Z" fill="black"/>
</g>
</mask>
<g mask="url(#mask0_579_612)">
<rect x="0.132812" y="0.791992" width="18.0416" height="18.0416" fill="#FFBE45"/>
</g>
<defs>
<clipPath id="clip0_579_612">
<rect width="18.0416" height="18.0416" fill="white" transform="translate(0.134033 0.791992)"/>
</clipPath>
</defs>
</svg>
