<svg width="19" height="19" viewBox="0 0 19 19" fill="none" xmlns="http://www.w3.org/2000/svg">
<mask id="mask0_579_369" style="mask-type:alpha" maskUnits="userSpaceOnUse" x="0" y="0" width="19" height="19">
<g clip-path="url(#clip0_579_369)">
<path d="M9.14928 3.0384C9.3376 2.56403 10.009 2.56402 10.1973 3.0384L11.771 7.00259L16.0855 7.23701C16.6032 7.26514 16.8117 7.91826 16.406 8.24113L13.0674 10.8982L14.1739 14.9831C14.3082 15.4788 13.7639 15.8812 13.3293 15.6076L9.67331 13.3059L6.01723 15.6076C5.58267 15.8812 5.0384 15.4788 5.17266 14.9831L6.27923 10.8982L2.94063 8.24113C2.53497 7.91826 2.74344 7.26514 3.26114 7.23701L7.57566 7.00259L9.14928 3.0384Z" fill="black"/>
</g>
</mask>
<g mask="url(#mask0_579_369)">
<rect x="0.654541" y="0.59082" width="18.0416" height="18.0416" fill="#FFBE45"/>
</g>
<defs>
<clipPath id="clip0_579_369">
<rect width="18.0416" height="18.0416" fill="white" transform="translate(0.653809 0.59082)"/>
</clipPath>
</defs>
</svg>
