<svg width="19" height="19" viewBox="0 0 19 19" fill="none" xmlns="http://www.w3.org/2000/svg">
<mask id="mask0_579_251" style="mask-type:alpha" maskUnits="userSpaceOnUse" x="0" y="0" width="19" height="19">
<g clip-path="url(#clip0_579_251)">
<path d="M9.28893 2.9632C9.47725 2.48883 10.1487 2.48882 10.337 2.9632L11.9106 6.9274L16.2252 7.16181C16.7429 7.18995 16.9513 7.84306 16.5456 8.16593L13.207 10.823L14.3135 14.9079C14.4478 15.4036 13.9036 15.806 13.469 15.5325L9.81296 13.2307L6.15688 15.5325C5.72232 15.806 5.17805 15.4036 5.31231 14.9079L6.41888 10.823L3.08028 8.16593C2.67462 7.84306 2.88309 7.18995 3.40079 7.16181L7.71531 6.9274L9.28893 2.9632Z" fill="black"/>
</g>
</mask>
<g mask="url(#mask0_579_251)">
<rect x="0.788086" y="0.515625" width="18.0416" height="18.0416" fill="#FFBE45"/>
</g>
<defs>
<clipPath id="clip0_579_251">
<rect width="18.0416" height="18.0416" fill="white" transform="translate(0.789551 0.515625)"/>
</clipPath>
</defs>
</svg>
