<svg width="19" height="19" viewBox="0 0 19 19" fill="none" xmlns="http://www.w3.org/2000/svg">
<mask id="mask0_579_590" style="mask-type:alpha" maskUnits="userSpaceOnUse" x="0" y="0" width="19" height="19">
<g clip-path="url(#clip0_579_590)">
<path d="M8.66588 3.23957C8.8542 2.7652 9.52562 2.76519 9.71393 3.23957L11.2876 7.20376L15.6021 7.43818C16.1198 7.46631 16.3283 8.11943 15.9226 8.4423L12.584 11.0994L13.6905 15.1842C13.8248 15.6799 13.2805 16.0824 12.8459 15.8088L9.18991 13.5071L5.53384 15.8088C5.09927 16.0824 4.555 15.6799 4.68926 15.1842L5.79583 11.0994L2.45723 8.4423C2.05157 8.11943 2.26004 7.46631 2.77774 7.43818L7.09226 7.20376L8.66588 3.23957Z" fill="black"/>
</g>
</mask>
<g mask="url(#mask0_579_590)">
<rect x="0.16748" y="0.791992" width="18.0416" height="18.0416" fill="#FFBE45"/>
</g>
<defs>
<clipPath id="clip0_579_590">
<rect width="18.0416" height="18.0416" fill="white" transform="translate(0.167969 0.791992)"/>
</clipPath>
</defs>
</svg>
