<svg width="19" height="19" viewBox="0 0 19 19" fill="none" xmlns="http://www.w3.org/2000/svg">
<mask id="mask0_579_567" style="mask-type:alpha" maskUnits="userSpaceOnUse" x="0" y="0" width="19" height="19">
<g clip-path="url(#clip0_579_567)">
<path d="M8.75743 3.23957C8.94576 2.7652 9.61717 2.76519 9.80548 3.23957L11.3791 7.20376L15.6937 7.43818C16.2114 7.46631 16.4199 8.11943 16.0141 8.4423L12.6755 11.0994L13.7821 15.1842C13.9164 15.6799 13.3721 16.0824 12.9375 15.8088L9.28146 13.5071L5.62539 15.8088C5.19082 16.0824 4.64655 15.6799 4.78082 15.1842L5.88739 11.0994L2.54879 8.4423C2.14312 8.11943 2.35159 7.46631 2.8693 7.43818L7.18381 7.20376L8.75743 3.23957Z" fill="black"/>
</g>
</mask>
<g mask="url(#mask0_579_567)">
<rect x="0.258545" y="0.791992" width="18.0416" height="18.0416" fill="#FFBE45"/>
</g>
<defs>
<clipPath id="clip0_579_567">
<rect width="18.0416" height="18.0416" fill="white" transform="translate(0.259277 0.791992)"/>
</clipPath>
</defs>
</svg>
