<svg width="19" height="19" viewBox="0 0 19 19" fill="none" xmlns="http://www.w3.org/2000/svg">
<mask id="mask0_579_298" style="mask-type:alpha" maskUnits="userSpaceOnUse" x="0" y="0" width="19" height="19">
<g clip-path="url(#clip0_579_298)">
<path d="M8.88097 2.9632C9.06929 2.48883 9.74071 2.48882 9.92902 2.9632L11.5027 6.9274L15.8172 7.16181C16.3349 7.18995 16.5434 7.84306 16.1377 8.16593L12.7991 10.823L13.9056 14.9079C14.0399 15.4036 13.4956 15.806 13.061 15.5325L9.405 13.2307L5.74892 15.5325C5.31436 15.806 4.77009 15.4036 4.90435 14.9079L6.01092 10.823L2.67232 8.16593C2.26666 7.84306 2.47513 7.18995 2.99283 7.16181L7.30735 6.9274L8.88097 2.9632Z" fill="black"/>
</g>
</mask>
<g mask="url(#mask0_579_298)">
<rect x="0.384277" y="0.515625" width="18.0416" height="18.0416" fill="#FFBE45"/>
</g>
<defs>
<clipPath id="clip0_579_298">
<rect width="18.0416" height="18.0416" fill="white" transform="translate(0.384277 0.515625)"/>
</clipPath>
</defs>
</svg>
