<svg width="19" height="19" viewBox="0 0 19 19" fill="none" xmlns="http://www.w3.org/2000/svg">
<mask id="mask0_579_275" style="mask-type:alpha" maskUnits="userSpaceOnUse" x="0" y="0" width="19" height="19">
<g clip-path="url(#clip0_579_275)">
<path d="M9.08629 2.9632C9.27461 2.48883 9.94603 2.48882 10.1343 2.9632L11.708 6.9274L16.0225 7.16181C16.5402 7.18995 16.7487 7.84306 16.343 8.16593L13.0044 10.823L14.1109 14.9079C14.2452 15.4036 13.7009 15.806 13.2663 15.5325L9.61032 13.2307L5.95425 15.5325C5.51968 15.806 4.97541 15.4036 5.10967 14.9079L6.21624 10.823L2.87764 8.16593C2.47198 7.84306 2.68045 7.18995 3.19815 7.16181L7.51267 6.9274L9.08629 2.9632Z" fill="black"/>
</g>
</mask>
<g mask="url(#mask0_579_275)">
<rect x="0.586914" y="0.515625" width="18.0416" height="18.0416" fill="#FFBE45"/>
</g>
<defs>
<clipPath id="clip0_579_275">
<rect width="18.0416" height="18.0416" fill="white" transform="translate(0.587891 0.515625)"/>
</clipPath>
</defs>
</svg>
