<svg width="19" height="19" viewBox="0 0 19 19" fill="none" xmlns="http://www.w3.org/2000/svg">
<mask id="mask0_579_520" style="mask-type:alpha" maskUnits="userSpaceOnUse" x="0" y="0" width="19" height="19">
<g clip-path="url(#clip0_579_520)">
<path d="M9.23644 3.23957C9.42476 2.7652 10.0962 2.76519 10.2845 3.23957L11.8581 7.20376L16.1727 7.43818C16.6904 7.46631 16.8989 8.11943 16.4931 8.4423L13.1545 11.0994L14.2611 15.1842C14.3954 15.6799 13.8511 16.0824 13.4165 15.8088L9.76047 13.5071L6.10439 15.8088C5.66983 16.0824 5.12556 15.6799 5.25982 15.1842L6.36639 11.0994L3.02779 8.4423C2.62212 8.11943 2.8306 7.46631 3.3483 7.43818L7.66282 7.20376L9.23644 3.23957Z" fill="black"/>
</g>
</mask>
<g mask="url(#mask0_579_520)">
<rect x="0.739746" y="0.791992" width="18.0416" height="18.0416" fill="#FFBE45"/>
</g>
<defs>
<clipPath id="clip0_579_520">
<rect width="18.0416" height="18.0416" fill="white" transform="translate(0.739746 0.791992)"/>
</clipPath>
</defs>
</svg>
