<svg width="19" height="19" viewBox="0 0 19 19" fill="none" xmlns="http://www.w3.org/2000/svg">
<mask id="mask0_579_417" style="mask-type:alpha" maskUnits="userSpaceOnUse" x="0" y="0" width="19" height="19">
<g clip-path="url(#clip0_579_417)">
<path d="M8.85436 2.9632C9.04268 2.48883 9.7141 2.48882 9.90241 2.9632L11.476 6.9274L15.7906 7.16181C16.3083 7.18995 16.5168 7.84306 16.1111 8.16593L12.7725 10.823L13.879 14.9079C14.0133 15.4036 13.469 15.806 13.0344 15.5325L9.37839 13.2307L5.72231 15.5325C5.28775 15.806 4.74348 15.4036 4.87774 14.9079L5.98431 10.823L2.64571 8.16593C2.24004 7.84306 2.44852 7.18995 2.96622 7.16181L7.28074 6.9274L8.85436 2.9632Z" fill="black"/>
</g>
</mask>
<g mask="url(#mask0_579_417)">
<rect x="0.361084" y="0.515625" width="18.0416" height="18.0416" fill="#FFBE45"/>
</g>
<defs>
<clipPath id="clip0_579_417">
<rect width="18.0416" height="18.0416" fill="white" transform="translate(0.359863 0.515625)"/>
</clipPath>
</defs>
</svg>
