<svg width="31" height="28" viewBox="0 0 31 28" fill="none" xmlns="http://www.w3.org/2000/svg">
<path d="M5.40591 0.710938C6.77165 0.710938 7.88008 1.81936 7.88008 3.1851V25.4526C7.88008 26.8183 6.77165 27.9267 5.40591 27.9267H2.94536C1.57838 27.9267 0.471191 26.8183 0.471191 25.4526V3.1851C0.471191 1.81936 1.57838 0.710938 2.94536 0.710938H5.40591ZM14.0655 0.710938C15.4312 0.710938 16.5397 1.81936 16.5397 3.1851V25.4526C16.5397 26.8183 15.4312 27.9267 14.0655 27.9267H11.5975C10.2305 27.9267 9.12334 26.8183 9.12334 25.4526V3.1851C9.12334 1.81936 10.2305 0.710938 11.5975 0.710938H14.0655ZM25.2987 5.09417L30.0738 24.2479C30.4041 25.5728 29.5963 26.9163 28.2714 27.2478L25.843 27.8528C24.5181 28.1831 23.1746 27.3765 22.8443 26.0503L18.0692 6.8966C17.7376 5.57044 18.5455 4.22821 19.8704 3.89667L22.2988 3.29174C23.6237 2.9602 24.9671 3.76801 25.2987 5.09417Z" fill="#183B32"/>
</svg>
