<svg width="25" height="24" viewBox="0 0 25 24" fill="none" xmlns="http://www.w3.org/2000/svg">
<path d="M4.08919 0.775391C5.21241 0.775391 6.124 1.68699 6.124 2.8102V21.1235C6.124 22.2467 5.21241 23.1583 4.08919 23.1583H2.06557C0.94134 23.1583 0.0307617 22.2467 0.0307617 21.1235V2.8102C0.0307617 1.68699 0.94134 0.775391 2.06557 0.775391H4.08919ZM11.211 0.775391C12.3342 0.775391 13.2458 1.68699 13.2458 2.8102V21.1235C13.2458 22.2467 12.3342 23.1583 11.211 23.1583H9.18131C8.05708 23.1583 7.1465 22.2467 7.1465 21.1235V2.8102C7.1465 1.68699 8.05708 0.775391 9.18131 0.775391H11.211ZM20.4495 4.38026L24.3767 20.1328C24.6483 21.2224 23.984 22.3273 22.8943 22.6L20.8971 23.0975C19.8075 23.3691 18.7026 22.7058 18.431 21.6151L14.5038 5.86262C14.2311 4.77196 14.8955 3.66808 15.9851 3.39541L17.9823 2.8979C19.0719 2.62524 20.1768 3.2896 20.4495 4.38026Z" fill="#A79C7D"/>
</svg>
