<svg width="31" height="28" viewBox="0 0 31 28" fill="none" xmlns="http://www.w3.org/2000/svg">
<path d="M5.40542 0.391602C6.77116 0.391602 7.87959 1.50003 7.87959 2.86577V25.1332C7.87959 26.499 6.77116 27.6074 5.40542 27.6074H2.94487C1.57789 27.6074 0.470703 26.499 0.470703 25.1332V2.86577C0.470703 1.50003 1.57789 0.391602 2.94487 0.391602H5.40542ZM14.065 0.391602C15.4307 0.391602 16.5392 1.50003 16.5392 2.86577V25.1332C16.5392 26.499 15.4307 27.6074 14.065 27.6074H11.597C10.23 27.6074 9.12286 26.499 9.12286 25.1332V2.86577C9.12286 1.50003 10.23 0.391602 11.597 0.391602H14.065ZM25.2982 4.77483L30.0733 23.9286C30.4036 25.2535 29.5958 26.597 28.2709 26.9285L25.8425 27.5334C24.5176 27.8637 23.1741 27.0572 22.8438 25.731L18.0687 6.57726C17.7372 5.25111 18.545 3.90887 19.8699 3.57734L22.2983 2.9724C23.6232 2.64086 24.9667 3.44868 25.2982 4.77483Z" fill="#183B32"/>
</svg>
