<svg width="32" height="32" viewBox="0 0 32 32" fill="none" xmlns="http://www.w3.org/2000/svg">
<g clip-path="url(#clip0_579_709)">
<path d="M24 0H8C3.58172 0 0 3.58172 0 8V24C0 28.4183 3.58172 32 8 32H24C28.4183 32 32 28.4183 32 24V8C32 3.58172 28.4183 0 24 0Z" fill="#039BE5"/>
<path d="M23.9849 9.38147C24.1252 8.46093 23.2636 7.73435 22.4579 8.09371L6.41042 15.2512C5.83263 15.509 5.8749 16.398 6.47415 16.5919L9.78354 17.6625C10.4152 17.8668 11.0991 17.7612 11.6506 17.3741L19.1118 12.1375C19.3368 11.9795 19.5821 12.3045 19.3899 12.5059L14.0191 18.131C13.4981 18.6767 13.6015 19.6013 14.2282 20.0005L20.2413 23.8312C20.9158 24.2608 21.7834 23.8292 21.9095 23.0013L23.9849 9.38147Z" fill="white"/>
</g>
<defs>
<clipPath id="clip0_579_709">
<rect width="32" height="32" fill="white"/>
</clipPath>
</defs>
</svg>
