<svg width="32" height="32" viewBox="0 0 32 32" fill="none" xmlns="http://www.w3.org/2000/svg">
<g clip-path="url(#clip0_579_714)">
<path d="M24 0H8C3.58172 0 0 3.58172 0 8V24C0 28.4183 3.58172 32 8 32H24C28.4183 32 32 28.4183 32 24V8C32 3.58172 28.4183 0 24 0Z" fill="#0077FF"/>
<path d="M16.8932 22C10.06 22 6.1624 17.4955 6 10H9.42286C9.53529 15.5015 12.0587 17.8318 14.0575 18.3123V10H17.2805V14.7447C19.2542 14.5405 21.3279 12.3784 22.0275 10H25.2505C24.9869 11.2335 24.4614 12.4014 23.7069 13.4307C22.9524 14.46 21.9852 15.3285 20.8657 15.982C22.1153 16.579 23.2191 17.4241 24.1041 18.4615C24.9891 19.4988 25.6353 20.7049 26 22H22.4522C22.1248 20.8751 21.4594 19.8681 20.5394 19.1053C19.6194 18.3424 18.4858 17.8577 17.2805 17.7117V22H16.8932Z" fill="white"/>
</g>
<defs>
<clipPath id="clip0_579_714">
<rect width="32" height="32" fill="white"/>
</clipPath>
</defs>
</svg>
