<svg width="17" height="16" viewBox="0 0 17 16" fill="none" xmlns="http://www.w3.org/2000/svg">
<g clip-path="url(#clip0_579_2025)">
<path d="M4.22093 8.55814C6.27594 8.55814 7.94186 10.2241 7.94186 12.2791C7.94186 14.3341 6.27594 16 4.22093 16C2.16592 16 0.5 14.3341 0.5 12.2791C0.5 10.2241 2.16592 8.55814 4.22093 8.55814ZM12.7791 8.55814C14.8341 8.55814 16.5 10.2241 16.5 12.2791C16.5 14.3341 14.8341 16 12.7791 16C10.7241 16 9.05814 14.3341 9.05814 12.2791C9.05814 10.2241 10.7241 8.55814 12.7791 8.55814ZM4.22093 0C6.27594 0 7.94186 1.66592 7.94186 3.72093C7.94186 5.77594 6.27594 7.44186 4.22093 7.44186C2.16592 7.44186 0.5 5.77594 0.5 3.72093C0.5 1.66592 2.16592 0 4.22093 0ZM12.7791 0C14.8341 0 16.5 1.66592 16.5 3.72093C16.5 5.77594 14.8341 7.44186 12.7791 7.44186C10.7241 7.44186 9.05814 5.77594 9.05814 3.72093C9.05814 1.66592 10.7241 0 12.7791 0Z" fill="white"/>
</g>
<defs>
<clipPath id="clip0_579_2025">
<rect width="16" height="16" fill="white" transform="translate(0.5)"/>
</clipPath>
</defs>
</svg>
