<svg width="23" height="22" viewBox="0 0 23 22" fill="none" xmlns="http://www.w3.org/2000/svg">
<mask id="mask0_579_1379" style="mask-type:alpha" maskUnits="userSpaceOnUse" x="0" y="0" width="23" height="22">
<g clip-path="url(#clip0_579_1379)">
<path d="M11.0392 3.00407C11.2682 2.42704 12.085 2.42702 12.314 3.00407L14.2282 7.82618L19.4765 8.11133C20.1063 8.14555 20.3599 8.94002 19.8664 9.33276L15.8052 12.5649L17.1512 17.5338C17.3146 18.1368 16.6525 18.6263 16.1239 18.2935L11.6766 15.4936L7.22929 18.2935C6.70067 18.6263 6.03861 18.1368 6.20193 17.5338L7.54799 12.5649L3.48686 9.33276C2.9934 8.94002 3.24698 8.14555 3.87673 8.11133L9.12498 7.82618L11.0392 3.00407Z" fill="black"/>
</g>
</mask>
<g mask="url(#mask0_579_1379)">
<rect x="0.704224" y="0.0273438" width="21.9461" height="21.9461" fill="#FFBE45"/>
</g>
<defs>
<clipPath id="clip0_579_1379">
<rect width="21.9461" height="21.9461" fill="white" transform="translate(0.704102 0.0273438)"/>
</clipPath>
</defs>
</svg>
