<svg width="19" height="19" viewBox="0 0 19 19" fill="none" xmlns="http://www.w3.org/2000/svg">
<mask id="mask0_579_1491" style="mask-type:alpha" maskUnits="userSpaceOnUse" x="0" y="0" width="19" height="19">
<g clip-path="url(#clip0_579_1491)">
<path d="M8.73644 3.22102C8.92476 2.74665 9.59618 2.74663 9.78449 3.22102L11.3581 7.18521L15.6727 7.41963C16.1904 7.44776 16.3989 8.10088 15.9931 8.42374L12.6545 11.0809L13.7611 15.1657C13.8954 15.6614 13.3511 16.0638 12.9165 15.7903L9.26047 13.4885L5.60439 15.7903C5.16983 16.0638 4.62556 15.6614 4.75982 15.1657L5.86639 11.0809L2.52779 8.42374C2.12212 8.10088 2.3306 7.44776 2.8483 7.41963L7.16282 7.18521L8.73644 3.22102Z" fill="black"/>
</g>
</mask>
<g mask="url(#mask0_579_1491)">
<rect x="0.239746" y="0.773438" width="18.0416" height="18.0416" fill="#FFBE45"/>
</g>
<defs>
<clipPath id="clip0_579_1491">
<rect width="18.0416" height="18.0416" fill="white" transform="translate(0.239746 0.773438)"/>
</clipPath>
</defs>
</svg>
