<svg width="19" height="19" viewBox="0 0 19 19" fill="none" xmlns="http://www.w3.org/2000/svg">
<mask id="mask0_579_1868" style="mask-type:alpha" maskUnits="userSpaceOnUse" x="0" y="0" width="19" height="19">
<g clip-path="url(#clip0_579_1868)">
<path d="M9.35436 2.7552C9.54268 2.28083 10.2141 2.28081 10.4024 2.7552L11.976 6.71939L16.2906 6.9538C16.8083 6.98194 17.0168 7.63506 16.6111 7.95792L13.2725 10.615L14.379 14.6999C14.5133 15.1956 13.969 15.598 13.5344 15.3244L9.87839 13.0227L6.22231 15.3244C5.78775 15.598 5.24348 15.1956 5.37774 14.6999L6.48431 10.615L3.14571 7.95792C2.74004 7.63506 2.94852 6.98194 3.46622 6.9538L7.78074 6.71939L9.35436 2.7552Z" fill="black"/>
</g>
</mask>
<g mask="url(#mask0_579_1868)">
<rect x="0.861084" y="0.307617" width="18.0416" height="18.0416" fill="#FFBE45"/>
</g>
<defs>
<clipPath id="clip0_579_1868">
<rect width="18.0416" height="18.0416" fill="white" transform="translate(0.859863 0.307617)"/>
</clipPath>
</defs>
</svg>
