<svg width="19" height="19" viewBox="0 0 19 19" fill="none" xmlns="http://www.w3.org/2000/svg">
<mask id="mask0_579_1468" style="mask-type:alpha" maskUnits="userSpaceOnUse" x="0" y="0" width="19" height="19">
<g clip-path="url(#clip0_579_1468)">
<path d="M8.65648 3.22102C8.8448 2.74665 9.51622 2.74663 9.70453 3.22102L11.2782 7.18521L15.5927 7.41963C16.1104 7.44776 16.3189 8.10088 15.9132 8.42374L12.5746 11.0809L13.6811 15.1657C13.8154 15.6614 13.2711 16.0638 12.8365 15.7903L9.18051 13.4885L5.52444 15.7903C5.08987 16.0638 4.5456 15.6614 4.67986 15.1657L5.78643 11.0809L2.44783 8.42374C2.04217 8.10088 2.25064 7.44776 2.76834 7.41963L7.08286 7.18521L8.65648 3.22102Z" fill="black"/>
</g>
</mask>
<g mask="url(#mask0_579_1468)">
<rect x="0.16394" y="0.773438" width="18.0416" height="18.0416" fill="#FFBE45"/>
</g>
<defs>
<clipPath id="clip0_579_1468">
<rect width="18.0416" height="18.0416" fill="white" transform="translate(0.162476 0.773438)"/>
</clipPath>
</defs>
</svg>
