<svg width="19" height="19" viewBox="0 0 19 19" fill="none" xmlns="http://www.w3.org/2000/svg">
<mask id="mask0_579_1821" style="mask-type:alpha" maskUnits="userSpaceOnUse" x="0" y="0" width="19" height="19">
<g clip-path="url(#clip0_579_1821)">
<path d="M9.16588 2.7552C9.3542 2.28083 10.0256 2.28081 10.2139 2.7552L11.7876 6.71939L16.1021 6.9538C16.6198 6.98194 16.8283 7.63506 16.4226 7.95792L13.084 10.615L14.1905 14.6999C14.3248 15.1956 13.7805 15.598 13.3459 15.3244L9.68991 13.0227L6.03384 15.3244C5.59927 15.598 5.055 15.1956 5.18926 14.6999L6.29583 10.615L2.95723 7.95792C2.55157 7.63506 2.76004 6.98194 3.27774 6.9538L7.59226 6.71939L9.16588 2.7552Z" fill="black"/>
</g>
</mask>
<g mask="url(#mask0_579_1821)">
<rect x="0.66748" y="0.307617" width="18.0416" height="18.0416" fill="#FFBE45"/>
</g>
<defs>
<clipPath id="clip0_579_1821">
<rect width="18.0416" height="18.0416" fill="white" transform="translate(0.667969 0.307617)"/>
</clipPath>
</defs>
</svg>
