<svg width="19" height="19" viewBox="0 0 19 19" fill="none" xmlns="http://www.w3.org/2000/svg">
<mask id="mask0_579_1514" style="mask-type:alpha" maskUnits="userSpaceOnUse" x="0" y="0" width="19" height="19">
<g clip-path="url(#clip0_579_1514)">
<path d="M8.93859 3.22102C9.12691 2.74665 9.79833 2.74663 9.98663 3.22102L11.5603 7.18521L15.8748 7.41963C16.3925 7.44776 16.601 8.10088 16.1953 8.42374L12.8567 11.0809L13.9632 15.1657C14.0975 15.6614 13.5532 16.0638 13.1186 15.7903L9.46262 13.4885L5.80654 15.7903C5.37197 16.0638 4.8277 15.6614 4.96197 15.1657L6.06854 11.0809L2.72994 8.42374C2.32427 8.10088 2.53274 7.44776 3.05045 7.41963L7.36496 7.18521L8.93859 3.22102Z" fill="black"/>
</g>
</mask>
<g mask="url(#mask0_579_1514)">
<rect x="0.441895" y="0.773438" width="18.0416" height="18.0416" fill="#FFBE45"/>
</g>
<defs>
<clipPath id="clip0_579_1514">
<rect width="18.0416" height="18.0416" fill="white" transform="translate(0.441895 0.773438)"/>
</clipPath>
</defs>
</svg>
