<svg width="18" height="18" viewBox="0 0 18 18" fill="none" xmlns="http://www.w3.org/2000/svg">
<mask id="mask0_579_1406" style="mask-type:alpha" maskUnits="userSpaceOnUse" x="0" y="0" width="18" height="18">
<g clip-path="url(#clip0_579_1406)">
<g clip-path="url(#clip1_579_1406)">
<path fill-rule="evenodd" clip-rule="evenodd" d="M1.76294 3.72266C2.34759 3.72266 2.82153 4.19661 2.82153 4.78125C2.82153 5.36589 2.34759 5.83984 1.76294 5.83984C1.17829 5.83984 0.704346 5.36589 0.704346 4.78125C0.704346 4.19661 1.17829 3.72266 1.76294 3.72266ZM16.8479 3.9873C17.2864 3.9873 17.6418 4.34277 17.6418 4.78125C17.6418 5.21973 17.2864 5.5752 16.8479 5.5752H4.67407C4.23559 5.5752 3.88013 5.21973 3.88013 4.78125C3.88013 4.34277 4.23559 3.9873 4.67407 3.9873H16.8479ZM16.8479 8.22168C17.2864 8.22168 17.6418 8.57715 17.6418 9.01562C17.6418 9.4541 17.2864 9.80957 16.8479 9.80957H4.67407C4.23559 9.80957 3.88013 9.4541 3.88013 9.01562C3.88013 8.57715 4.23559 8.22168 4.67407 8.22168H16.8479ZM17.6418 13.25C17.6418 12.8115 17.2864 12.4561 16.8479 12.4561H4.67407C4.23559 12.4561 3.88013 12.8115 3.88013 13.25C3.88013 13.6885 4.23559 14.0439 4.67407 14.0439H16.8479C17.2864 14.0439 17.6418 13.6885 17.6418 13.25ZM2.82153 9.01562C2.82153 8.43098 2.34759 7.95703 1.76294 7.95703C1.17829 7.95703 0.704346 8.43098 0.704346 9.01562C0.704346 9.60027 1.17829 10.0742 1.76294 10.0742C2.34759 10.0742 2.82153 9.60027 2.82153 9.01562ZM1.76294 12.1914C2.34759 12.1914 2.82153 12.6653 2.82153 13.25C2.82153 13.8347 2.34759 14.3086 1.76294 14.3086C1.17829 14.3086 0.704346 13.8347 0.704346 13.25C0.704346 12.6653 1.17829 12.1914 1.76294 12.1914Z" fill="black"/>
</g>
</g>
</mask>
<g mask="url(#mask0_579_1406)">
<rect x="0.704346" y="0.811523" width="16.9375" height="16.9375" fill="#70778F"/>
</g>
<defs>
<clipPath id="clip0_579_1406">
<rect width="16.9375" height="16.9375" fill="white" transform="translate(0.704346 0.811523)"/>
</clipPath>
<clipPath id="clip1_579_1406">
<rect width="16.9375" height="16.9375" fill="white" transform="translate(0.704346 0.811523)"/>
</clipPath>
</defs>
</svg>
