<svg width="19" height="19" viewBox="0 0 19 19" fill="none" xmlns="http://www.w3.org/2000/svg">
<mask id="mask0_579_1798" style="mask-type:alpha" maskUnits="userSpaceOnUse" x="0" y="0" width="19" height="19">
<g clip-path="url(#clip0_579_1798)">
<path d="M9.25743 2.7552C9.44576 2.28083 10.1172 2.28081 10.3055 2.7552L11.8791 6.71939L16.1937 6.9538C16.7114 6.98194 16.9199 7.63506 16.5141 7.95792L13.1755 10.615L14.2821 14.6999C14.4164 15.1956 13.8721 15.598 13.4375 15.3244L9.78146 13.0227L6.12539 15.3244C5.69082 15.598 5.14655 15.1956 5.28082 14.6999L6.38739 10.615L3.04879 7.95792C2.64312 7.63506 2.85159 6.98194 3.3693 6.9538L7.68381 6.71939L9.25743 2.7552Z" fill="black"/>
</g>
</mask>
<g mask="url(#mask0_579_1798)">
<rect x="0.758545" y="0.307617" width="18.0416" height="18.0416" fill="#FFBE45"/>
</g>
<defs>
<clipPath id="clip0_579_1798">
<rect width="18.0416" height="18.0416" fill="white" transform="translate(0.759277 0.307617)"/>
</clipPath>
</defs>
</svg>
