<svg width="19" height="19" viewBox="0 0 19 19" fill="none" xmlns="http://www.w3.org/2000/svg">
<mask id="mask0_579_1538" style="mask-type:alpha" maskUnits="userSpaceOnUse" x="0" y="0" width="19" height="19">
<g clip-path="url(#clip0_579_1538)">
<path d="M9.25743 3.22102C9.44576 2.74665 10.1172 2.74663 10.3055 3.22102L11.8791 7.18521L16.1937 7.41963C16.7114 7.44776 16.9199 8.10088 16.5141 8.42374L13.1755 11.0809L14.2821 15.1657C14.4164 15.6614 13.8721 16.0638 13.4375 15.7903L9.78146 13.4885L6.12539 15.7903C5.69082 16.0638 5.14655 15.6614 5.28082 15.1657L6.38739 11.0809L3.04879 8.42374C2.64312 8.10088 2.85159 7.44776 3.3693 7.41963L7.68381 7.18521L9.25743 3.22102Z" fill="black"/>
</g>
</mask>
<g mask="url(#mask0_579_1538)">
<rect x="0.758545" y="0.773438" width="18.0416" height="18.0416" fill="#FFBE45"/>
</g>
<defs>
<clipPath id="clip0_579_1538">
<rect width="18.0416" height="18.0416" fill="white" transform="translate(0.759277 0.773438)"/>
</clipPath>
</defs>
</svg>
