<svg width="19" height="19" viewBox="0 0 19 19" fill="none" xmlns="http://www.w3.org/2000/svg">
<mask id="mask0_579_1608" style="mask-type:alpha" maskUnits="userSpaceOnUse" x="0" y="0" width="19" height="19">
<g clip-path="url(#clip0_579_1608)">
<path d="M9.35436 3.22102C9.54268 2.74665 10.2141 2.74663 10.4024 3.22102L11.976 7.18521L16.2906 7.41963C16.8083 7.44776 17.0168 8.10088 16.6111 8.42374L13.2725 11.0809L14.379 15.1657C14.5133 15.6614 13.969 16.0638 13.5344 15.7903L9.87839 13.4885L6.22231 15.7903C5.78775 16.0638 5.24348 15.6614 5.37774 15.1657L6.48431 11.0809L3.14571 8.42374C2.74004 8.10088 2.94852 7.44776 3.46622 7.41963L7.78074 7.18521L9.35436 3.22102Z" fill="black"/>
</g>
</mask>
<g mask="url(#mask0_579_1608)">
<rect x="0.861084" y="0.773438" width="18.0416" height="18.0416" fill="#FFBE45"/>
</g>
<defs>
<clipPath id="clip0_579_1608">
<rect width="18.0416" height="18.0416" fill="white" transform="translate(0.859863 0.773438)"/>
</clipPath>
</defs>
</svg>
