<svg width="19" height="19" viewBox="0 0 19 19" fill="none" xmlns="http://www.w3.org/2000/svg">
<mask id="mask0_579_1583" style="mask-type:alpha" maskUnits="userSpaceOnUse" x="0" y="0" width="19" height="19">
<g clip-path="url(#clip0_579_1583)">
<path d="M9.13341 3.22102C9.32173 2.74665 9.99315 2.74663 10.1815 3.22102L11.7551 7.18521L16.0697 7.41963C16.5873 7.44776 16.7958 8.10088 16.3901 8.42374L13.0515 11.0809L14.158 15.1657C14.2923 15.6614 13.748 16.0638 13.3135 15.7903L9.65744 13.4885L6.00136 15.7903C5.5668 16.0638 5.02253 15.6614 5.15679 15.1657L6.26336 11.0809L2.92476 8.42374C2.5191 8.10088 2.72757 7.44776 3.24527 7.41963L7.55979 7.18521L9.13341 3.22102Z" fill="black"/>
</g>
</mask>
<g mask="url(#mask0_579_1583)">
<rect x="0.632812" y="0.773438" width="18.0416" height="18.0416" fill="#FFBE45"/>
</g>
<defs>
<clipPath id="clip0_579_1583">
<rect width="18.0416" height="18.0416" fill="white" transform="translate(0.634033 0.773438)"/>
</clipPath>
</defs>
</svg>
