<svg width="19" height="19" viewBox="0 0 19 19" fill="none" xmlns="http://www.w3.org/2000/svg">
<mask id="mask0_579_1561" style="mask-type:alpha" maskUnits="userSpaceOnUse" x="0" y="0" width="19" height="19">
<g clip-path="url(#clip0_579_1561)">
<path d="M9.16588 3.22102C9.3542 2.74665 10.0256 2.74663 10.2139 3.22102L11.7876 7.18521L16.1021 7.41963C16.6198 7.44776 16.8283 8.10088 16.4226 8.42374L13.084 11.0809L14.1905 15.1657C14.3248 15.6614 13.7805 16.0638 13.3459 15.7903L9.68991 13.4885L6.03384 15.7903C5.59927 16.0638 5.055 15.6614 5.18926 15.1657L6.29583 11.0809L2.95723 8.42374C2.55157 8.10088 2.76004 7.44776 3.27774 7.41963L7.59226 7.18521L9.16588 3.22102Z" fill="black"/>
</g>
</mask>
<g mask="url(#mask0_579_1561)">
<rect x="0.66748" y="0.773438" width="18.0416" height="18.0416" fill="#FFBE45"/>
</g>
<defs>
<clipPath id="clip0_579_1561">
<rect width="18.0416" height="18.0416" fill="white" transform="translate(0.667969 0.773438)"/>
</clipPath>
</defs>
</svg>
