<svg width="19" height="19" viewBox="0 0 19 19" fill="none" xmlns="http://www.w3.org/2000/svg">
<mask id="mask0_579_1843" style="mask-type:alpha" maskUnits="userSpaceOnUse" x="0" y="0" width="19" height="19">
<g clip-path="url(#clip0_579_1843)">
<path d="M9.13341 2.7552C9.32173 2.28083 9.99315 2.28081 10.1815 2.7552L11.7551 6.71939L16.0697 6.9538C16.5873 6.98194 16.7958 7.63506 16.3901 7.95792L13.0515 10.615L14.158 14.6999C14.2923 15.1956 13.748 15.598 13.3135 15.3244L9.65744 13.0227L6.00136 15.3244C5.5668 15.598 5.02253 15.1956 5.15679 14.6999L6.26336 10.615L2.92476 7.95792C2.5191 7.63506 2.72757 6.98194 3.24527 6.9538L7.55979 6.71939L9.13341 2.7552Z" fill="black"/>
</g>
</mask>
<g mask="url(#mask0_579_1843)">
<rect x="0.632812" y="0.307617" width="18.0416" height="18.0416" fill="#FFBE45"/>
</g>
<defs>
<clipPath id="clip0_579_1843">
<rect width="18.0416" height="18.0416" fill="white" transform="translate(0.634033 0.307617)"/>
</clipPath>
</defs>
</svg>
