<svg width="19" height="19" viewBox="0 0 19 19" fill="none" xmlns="http://www.w3.org/2000/svg">
<mask id="mask0_579_1728" style="mask-type:alpha" maskUnits="userSpaceOnUse" x="0" y="0" width="19" height="19">
<g clip-path="url(#clip0_579_1728)">
<path d="M8.65648 2.7552C8.8448 2.28083 9.51622 2.28081 9.70453 2.7552L11.2782 6.71939L15.5927 6.9538C16.1104 6.98194 16.3189 7.63506 15.9132 7.95792L12.5746 10.615L13.6811 14.6999C13.8154 15.1956 13.2711 15.598 12.8365 15.3244L9.18051 13.0227L5.52444 15.3244C5.08987 15.598 4.5456 15.1956 4.67986 14.6999L5.78643 10.615L2.44783 7.95792C2.04217 7.63506 2.25064 6.98194 2.76834 6.9538L7.08286 6.71939L8.65648 2.7552Z" fill="black"/>
</g>
</mask>
<g mask="url(#mask0_579_1728)">
<rect x="0.16394" y="0.307617" width="18.0416" height="18.0416" fill="#FFBE45"/>
</g>
<defs>
<clipPath id="clip0_579_1728">
<rect width="18.0416" height="18.0416" fill="white" transform="translate(0.162476 0.307617)"/>
</clipPath>
</defs>
</svg>
