<svg width="31" height="28" viewBox="0 0 31 28" fill="none" xmlns="http://www.w3.org/2000/svg">
<path d="M5.40555 0.583008C6.77128 0.583008 7.87971 1.69143 7.87971 3.05717V25.3246C7.87971 26.6904 6.77128 27.7988 5.40555 27.7988H2.94499C1.57801 27.7988 0.470825 26.6904 0.470825 25.3246V3.05717C0.470825 1.69143 1.57801 0.583008 2.94499 0.583008H5.40555ZM14.0651 0.583008C15.4309 0.583008 16.5393 1.69143 16.5393 3.05717V25.3246C16.5393 26.6904 15.4309 27.7988 14.0651 27.7988H11.5971C10.2302 27.7988 9.12298 26.6904 9.12298 25.3246V3.05717C9.12298 1.69143 10.2302 0.583008 11.5971 0.583008H14.0651ZM25.2983 4.96624L30.0735 24.12C30.4038 25.4449 29.5959 26.7884 28.271 27.1199L25.8426 27.7248C24.5177 28.0551 23.1743 27.2486 22.844 25.9224L18.0688 6.76867C17.7373 5.44251 18.5451 4.10028 19.87 3.76874L22.2984 3.16381C23.6233 2.83227 24.9668 3.64009 25.2983 4.96624Z" fill="#183B32"/>
</svg>
