<svg width="31" height="28" viewBox="0 0 31 28" fill="none" xmlns="http://www.w3.org/2000/svg">
<path d="M5.40567 0.391602C6.77141 0.391602 7.87983 1.50003 7.87983 2.86577V25.1332C7.87983 26.499 6.77141 27.6074 5.40567 27.6074H2.94511C1.57814 27.6074 0.470947 26.499 0.470947 25.1332V2.86577C0.470947 1.50003 1.57814 0.391602 2.94511 0.391602H5.40567ZM14.0652 0.391602C15.431 0.391602 16.5394 1.50003 16.5394 2.86577V25.1332C16.5394 26.499 15.431 27.6074 14.0652 27.6074H11.5973C10.2303 27.6074 9.1231 26.499 9.1231 25.1332V2.86577C9.1231 1.50003 10.2303 0.391602 11.5973 0.391602H14.0652ZM25.2984 4.77483L30.0736 23.9286C30.4039 25.2535 29.5961 26.597 28.2712 26.9285L25.8428 27.5334C24.5178 27.8637 23.1744 27.0572 22.8441 25.731L18.0689 6.57726C17.7374 5.25111 18.5452 3.90887 19.8701 3.57734L22.2985 2.9724C23.6234 2.64086 24.9669 3.44868 25.2984 4.77483Z" fill="#183B32"/>
</svg>
