<svg width="21" height="22" viewBox="0 0 21 22" fill="none" xmlns="http://www.w3.org/2000/svg">
<path d="M7.0608 7.18738L1.59621 7.97966L1.49942 7.99936C1.35291 8.03826 1.21934 8.11534 1.11236 8.22274C1.00537 8.33014 0.928813 8.46401 0.890491 8.61068C0.852169 8.75735 0.853459 8.91156 0.89423 9.05757C0.935001 9.20357 1.01379 9.33614 1.12255 9.44174L5.08139 13.2952L4.14778 18.7384L4.13665 18.8326C4.12768 18.9842 4.15914 19.1354 4.22782 19.2707C4.2965 19.4061 4.39993 19.5208 4.52751 19.6031C4.65509 19.6853 4.80224 19.7322 4.95389 19.7389C5.10555 19.7456 5.25626 19.7119 5.39059 19.6412L10.2779 17.0716L15.154 19.6412L15.2397 19.6806C15.3811 19.7363 15.5347 19.7533 15.6849 19.73C15.835 19.7067 15.9763 19.6439 16.0942 19.548C16.212 19.4521 16.3023 19.3266 16.3556 19.1843C16.4089 19.0421 16.4235 18.8881 16.3977 18.7384L15.4633 13.2952L19.4238 9.44088L19.4906 9.36808C19.586 9.25054 19.6486 9.1098 19.6719 8.9602C19.6953 8.8106 19.6785 8.65749 19.6234 8.51647C19.5683 8.37544 19.4768 8.25155 19.3583 8.1574C19.2397 8.06325 19.0983 8.00222 18.9484 7.98052L13.4838 7.18738L11.041 2.2367C10.9704 2.09326 10.8609 1.97248 10.7252 1.88802C10.5894 1.80355 10.4327 1.75879 10.2727 1.75879C10.1128 1.75879 9.95613 1.80355 9.82034 1.88802C9.68456 1.97248 9.57513 2.09326 9.50445 2.2367L7.0608 7.18738Z" fill="#FFA538"/>
</svg>
