<svg width="15" height="16" viewBox="0 0 15 16" fill="none" xmlns="http://www.w3.org/2000/svg">
<path d="M5.12995 5.22888L1.32228 5.78093L1.25484 5.79466C1.15275 5.82176 1.05968 5.87547 0.985135 5.95031C0.910591 6.02514 0.857244 6.11842 0.830542 6.22062C0.80384 6.32281 0.804739 6.43027 0.833147 6.532C0.861556 6.63374 0.916456 6.72611 0.992241 6.79969L3.75071 9.48475L3.10019 13.2775L3.09243 13.3432C3.08618 13.4487 3.1081 13.5541 3.15596 13.6484C3.20381 13.7428 3.27588 13.8227 3.36478 13.88C3.45367 13.9373 3.55621 13.97 3.66188 13.9746C3.76755 13.9793 3.87256 13.9558 3.96616 13.9065L7.37158 12.1161L10.7692 13.9065L10.8289 13.934C10.9274 13.9728 11.0345 13.9847 11.1391 13.9685C11.2437 13.9522 11.3422 13.9085 11.4243 13.8417C11.5064 13.7748 11.5693 13.6874 11.6065 13.5882C11.6436 13.4891 11.6538 13.3819 11.6358 13.2775L10.9847 9.48475L13.7444 6.79909L13.7909 6.74836C13.8574 6.66646 13.901 6.5684 13.9173 6.46416C13.9335 6.35992 13.9219 6.25323 13.8835 6.15497C13.8451 6.05671 13.7813 5.97038 13.6987 5.90478C13.6161 5.83917 13.5175 5.79665 13.4131 5.78153L9.60546 5.22888L7.90334 1.77929C7.85409 1.67935 7.77784 1.59518 7.68323 1.53633C7.58862 1.47748 7.47942 1.44629 7.368 1.44629C7.25658 1.44629 7.14738 1.47748 7.05277 1.53633C6.95816 1.59518 6.88191 1.67935 6.83266 1.77929L5.12995 5.22888Z" fill="#FFA538"/>
</svg>
