<svg width="16" height="16" viewBox="0 0 16 16" fill="none" xmlns="http://www.w3.org/2000/svg">
<path d="M5.80622 5.22888L1.99855 5.78093L1.93111 5.79466C1.82902 5.82176 1.73595 5.87547 1.6614 5.95031C1.58686 6.02514 1.53351 6.11842 1.50681 6.22062C1.48011 6.32281 1.48101 6.43027 1.50942 6.532C1.53783 6.63374 1.59273 6.72611 1.66851 6.79969L4.42698 9.48475L3.77646 13.2775L3.7687 13.3432C3.76245 13.4487 3.78437 13.5541 3.83223 13.6484C3.88008 13.7428 3.95215 13.8227 4.04105 13.88C4.12994 13.9373 4.23248 13.97 4.33815 13.9746C4.44382 13.9793 4.54883 13.9558 4.64243 13.9065L8.04785 12.1161L11.4455 13.9065L11.5052 13.934C11.6037 13.9728 11.7108 13.9847 11.8154 13.9685C11.92 13.9522 12.0184 13.9085 12.1006 13.8417C12.1827 13.7748 12.2456 13.6874 12.2827 13.5882C12.3199 13.4891 12.33 13.3819 12.3121 13.2775L11.661 9.48475L14.4206 6.79909L14.4672 6.74836C14.5337 6.66646 14.5773 6.5684 14.5935 6.46416C14.6098 6.35992 14.5981 6.25323 14.5597 6.15497C14.5213 6.05671 14.4576 5.97038 14.375 5.90478C14.2923 5.83917 14.1938 5.79665 14.0894 5.78153L10.2817 5.22888L8.57961 1.77929C8.53036 1.67935 8.45411 1.59518 8.3595 1.53633C8.26489 1.47748 8.15569 1.44629 8.04427 1.44629C7.93285 1.44629 7.82365 1.47748 7.72904 1.53633C7.63443 1.59518 7.55818 1.67935 7.50893 1.77929L5.80622 5.22888Z" fill="#FFA538"/>
</svg>
