<svg width="15" height="16" viewBox="0 0 15 16" fill="none" xmlns="http://www.w3.org/2000/svg">
<path d="M5.48298 5.22888L1.67531 5.78093L1.60787 5.79466C1.50578 5.82176 1.41271 5.87547 1.33816 5.95031C1.26362 6.02514 1.21027 6.11842 1.18357 6.22062C1.15687 6.32281 1.15777 6.43027 1.18617 6.532C1.21458 6.63374 1.26948 6.72611 1.34527 6.79969L4.10374 9.48475L3.45321 13.2775L3.44546 13.3432C3.43921 13.4487 3.46113 13.5541 3.50899 13.6484C3.55684 13.7428 3.62891 13.8227 3.7178 13.88C3.8067 13.9373 3.90923 13.97 4.0149 13.9746C4.12058 13.9793 4.22559 13.9558 4.31919 13.9065L7.72461 12.1161L11.1223 13.9065L11.182 13.934C11.2805 13.9728 11.3875 13.9847 11.4921 13.9685C11.5968 13.9522 11.6952 13.9085 11.7773 13.8417C11.8595 13.7748 11.9223 13.6874 11.9595 13.5882C11.9967 13.4891 12.0068 13.3819 11.9888 13.2775L11.3377 9.48475L14.0974 6.79909L14.1439 6.74836C14.2104 6.66646 14.254 6.5684 14.2703 6.46416C14.2866 6.35992 14.2749 6.25323 14.2365 6.15497C14.1981 6.05671 14.1343 5.97038 14.0517 5.90478C13.9691 5.83917 13.8706 5.79665 13.7662 5.78153L9.95848 5.22888L8.25637 1.77929C8.20712 1.67935 8.13087 1.59518 8.03626 1.53633C7.94165 1.47748 7.83245 1.44629 7.72103 1.44629C7.60961 1.44629 7.50041 1.47748 7.4058 1.53633C7.31119 1.59518 7.23494 1.67935 7.18569 1.77929L5.48298 5.22888Z" fill="#FFA538"/>
</svg>
