<svg width="21" height="22" viewBox="0 0 21 22" fill="none" xmlns="http://www.w3.org/2000/svg">
<path d="M7.31983 7.18738L1.85524 7.97966L1.75846 7.99936C1.61194 8.03826 1.47837 8.11534 1.37139 8.22274C1.26441 8.33014 1.18785 8.46401 1.14952 8.61068C1.1112 8.75735 1.11249 8.91156 1.15326 9.05757C1.19403 9.20357 1.27282 9.33614 1.38159 9.44174L5.34042 13.2952L4.40681 18.7384L4.39568 18.8326C4.38671 18.9842 4.41818 19.1354 4.48685 19.2707C4.55553 19.4061 4.65896 19.5208 4.78654 19.6031C4.91412 19.6853 5.06127 19.7322 5.21292 19.7389C5.36458 19.7456 5.51529 19.7119 5.64962 19.6412L10.5369 17.0716L15.4131 19.6412L15.4987 19.6806C15.6401 19.7363 15.7938 19.7533 15.9439 19.73C16.0941 19.7067 16.2353 19.6439 16.3532 19.548C16.4711 19.4521 16.5613 19.3266 16.6146 19.1843C16.668 19.0421 16.6825 18.8881 16.6567 18.7384L15.7223 13.2952L19.6828 9.44088L19.7496 9.36808C19.8451 9.25054 19.9076 9.1098 19.931 8.9602C19.9543 8.8106 19.9376 8.65749 19.8825 8.51647C19.8274 8.37544 19.7359 8.25155 19.6173 8.1574C19.4987 8.06325 19.3573 8.00222 19.2075 7.98052L13.7429 7.18738L11.3001 2.2367C11.2294 2.09326 11.12 1.97248 10.9842 1.88802C10.8484 1.80355 10.6917 1.75879 10.5318 1.75879C10.3719 1.75879 10.2152 1.80355 10.0794 1.88802C9.94359 1.97248 9.83417 2.09326 9.76348 2.2367L7.31983 7.18738Z" fill="#FFA538"/>
</svg>
