<svg width="15" height="16" viewBox="0 0 15 16" fill="none" xmlns="http://www.w3.org/2000/svg">
<path d="M5.45307 5.22888L1.6454 5.78093L1.57796 5.79466C1.47587 5.82176 1.3828 5.87547 1.30825 5.95031C1.23371 6.02514 1.18036 6.11842 1.15366 6.22062C1.12696 6.32281 1.12786 6.43027 1.15627 6.532C1.18468 6.63374 1.23958 6.72611 1.31536 6.79969L4.07383 9.48475L3.42331 13.2775L3.41555 13.3432C3.4093 13.4487 3.43122 13.5541 3.47908 13.6484C3.52693 13.7428 3.599 13.8227 3.6879 13.88C3.77679 13.9373 3.87933 13.97 3.985 13.9746C4.09067 13.9793 4.19568 13.9558 4.28928 13.9065L7.6947 12.1161L11.0924 13.9065L11.152 13.934C11.2506 13.9728 11.3576 13.9847 11.4622 13.9685C11.5669 13.9522 11.6653 13.9085 11.7474 13.8417C11.8295 13.7748 11.8924 13.6874 11.9296 13.5882C11.9668 13.4891 11.9769 13.3819 11.9589 13.2775L11.3078 9.48475L14.0675 6.79909L14.114 6.74836C14.1805 6.66646 14.2241 6.5684 14.2404 6.46416C14.2566 6.35992 14.245 6.25323 14.2066 6.15497C14.1682 6.05671 14.1044 5.97038 14.0218 5.90478C13.9392 5.83917 13.8407 5.79665 13.7362 5.78153L9.92858 5.22888L8.22646 1.77929C8.17721 1.67935 8.10096 1.59518 8.00635 1.53633C7.91174 1.47748 7.80254 1.44629 7.69112 1.44629C7.5797 1.44629 7.4705 1.47748 7.37589 1.53633C7.28128 1.59518 7.20503 1.67935 7.15578 1.77929L5.45307 5.22888Z" fill="#FFA538"/>
</svg>
