<svg width="15" height="16" viewBox="0 0 15 16" fill="none" xmlns="http://www.w3.org/2000/svg">
<path d="M5.15937 5.22888L1.3517 5.78093L1.28426 5.79466C1.18217 5.82176 1.0891 5.87547 1.01455 5.95031C0.94001 6.02514 0.886663 6.11842 0.859961 6.22062C0.833259 6.32281 0.834158 6.43027 0.862566 6.532C0.890975 6.63374 0.945875 6.72611 1.02166 6.79969L3.78013 9.48475L3.12961 13.2775L3.12185 13.3432C3.1156 13.4487 3.13752 13.5541 3.18538 13.6484C3.23323 13.7428 3.3053 13.8227 3.39419 13.88C3.48309 13.9373 3.58562 13.97 3.6913 13.9746C3.79697 13.9793 3.90198 13.9558 3.99558 13.9065L7.401 12.1161L10.7987 13.9065L10.8583 13.934C10.9569 13.9728 11.0639 13.9847 11.1685 13.9685C11.2732 13.9522 11.3716 13.9085 11.4537 13.8417C11.5358 13.7748 11.5987 13.6874 11.6359 13.5882C11.6731 13.4891 11.6832 13.3819 11.6652 13.2775L11.0141 9.48475L13.7738 6.79909L13.8203 6.74836C13.8868 6.66646 13.9304 6.5684 13.9467 6.46416C13.9629 6.35992 13.9513 6.25323 13.9129 6.15497C13.8745 6.05671 13.8107 5.97038 13.7281 5.90478C13.6455 5.83917 13.547 5.79665 13.4425 5.78153L9.63488 5.22888L7.93276 1.77929C7.88351 1.67935 7.80726 1.59518 7.71265 1.53633C7.61804 1.47748 7.50884 1.44629 7.39742 1.44629C7.286 1.44629 7.1768 1.47748 7.08219 1.53633C6.98758 1.59518 6.91133 1.67935 6.86208 1.77929L5.15937 5.22888Z" fill="#FFA538"/>
</svg>
