<svg width="22" height="22" viewBox="0 0 22 22" fill="none" xmlns="http://www.w3.org/2000/svg">
<path d="M7.57899 7.18738L2.1144 7.97966L2.01761 7.99936C1.87109 8.03826 1.73753 8.11534 1.63054 8.22274C1.52356 8.33014 1.447 8.46401 1.40868 8.61068C1.37036 8.75735 1.37165 8.91156 1.41242 9.05757C1.45319 9.20357 1.53198 9.33614 1.64074 9.44174L5.59957 13.2952L4.66597 18.7384L4.65483 18.8326C4.64586 18.9842 4.67733 19.1354 4.74601 19.2707C4.81469 19.4061 4.91811 19.5208 5.04569 19.6031C5.17327 19.6853 5.32042 19.7322 5.47208 19.7389C5.62373 19.7456 5.77444 19.7119 5.90878 19.6412L10.7961 17.0716L15.6722 19.6412L15.7579 19.6806C15.8993 19.7363 16.0529 19.7533 16.2031 19.73C16.3532 19.7067 16.4945 19.6439 16.6123 19.548C16.7302 19.4521 16.8204 19.3266 16.8738 19.1843C16.9271 19.0421 16.9417 18.8881 16.9159 18.7384L15.9814 13.2952L19.942 9.44088L20.0088 9.36808C20.1042 9.25054 20.1668 9.1098 20.1901 8.9602C20.2135 8.8106 20.1967 8.65749 20.1416 8.51647C20.0865 8.37544 19.995 8.25155 19.8765 8.1574C19.7579 8.06325 19.6165 8.00222 19.4666 7.98052L14.002 7.18738L11.5592 2.2367C11.4886 2.09326 11.3791 1.97248 11.2433 1.88802C11.1076 1.80355 10.9508 1.75879 10.7909 1.75879C10.631 1.75879 10.4743 1.80355 10.3385 1.88802C10.2028 1.97248 10.0933 2.09326 10.0226 2.2367L7.57899 7.18738Z" fill="#FFA538"/>
</svg>
