<svg width="22" height="22" viewBox="0 0 22 22" fill="none" xmlns="http://www.w3.org/2000/svg">
<path d="M7.83802 7.18738L2.37343 7.97966L2.27664 7.99936C2.13013 8.03826 1.99656 8.11534 1.88958 8.22274C1.7826 8.33014 1.70603 8.46401 1.66771 8.61068C1.62939 8.75735 1.63068 8.91156 1.67145 9.05757C1.71222 9.20357 1.79101 9.33614 1.89978 9.44174L5.85861 13.2952L4.925 18.7384L4.91387 18.8326C4.9049 18.9842 4.93636 19.1354 5.00504 19.2707C5.07372 19.4061 5.17715 19.5208 5.30473 19.6031C5.43231 19.6853 5.57946 19.7322 5.73111 19.7389C5.88277 19.7456 6.03348 19.7119 6.16781 19.6412L11.0551 17.0716L15.9313 19.6412L16.0169 19.6806C16.1583 19.7363 16.3119 19.7533 16.4621 19.73C16.6123 19.7067 16.7535 19.6439 16.8714 19.548C16.9892 19.4521 17.0795 19.3266 17.1328 19.1843C17.1862 19.0421 17.2007 18.8881 17.1749 18.7384L16.2405 13.2952L20.201 9.44088L20.2678 9.36808C20.3633 9.25054 20.4258 9.1098 20.4492 8.9602C20.4725 8.8106 20.4558 8.65749 20.4007 8.51647C20.3456 8.37544 20.2541 8.25155 20.1355 8.1574C20.0169 8.06325 19.8755 8.00222 19.7257 7.98052L14.2611 7.18738L11.8183 2.2367C11.7476 2.09326 11.6382 1.97248 11.5024 1.88802C11.3666 1.80355 11.2099 1.75879 11.05 1.75879C10.8901 1.75879 10.7333 1.80355 10.5976 1.88802C10.4618 1.97248 10.3524 2.09326 10.2817 2.2367L7.83802 7.18738Z" fill="#FFA538"/>
</svg>
