<svg width="21" height="22" viewBox="0 0 21 22" fill="none" xmlns="http://www.w3.org/2000/svg">
<path d="M10.3146 1.75714C10.4542 1.75767 10.5916 1.79256 10.7145 1.85873C10.8375 1.92491 10.9422 2.02033 11.0195 2.13657L11.0769 2.23593L13.5197 7.18747L18.9843 7.97975C19.619 8.07225 19.9094 8.78487 19.5865 9.2868L19.5265 9.36816L19.4597 9.44182L15.4991 13.2953L16.4327 18.7385C16.4571 18.8805 16.4452 19.0263 16.3983 19.1625C16.3514 19.2987 16.2709 19.4209 16.1643 19.5177C16.0577 19.6146 15.9284 19.6831 15.7883 19.7168C15.6483 19.7505 15.502 19.7484 15.363 19.7106L15.2764 19.6807L15.1899 19.6413L10.3138 17.0717L5.42648 19.6413C5.33654 19.6884 5.2449 19.7183 5.15239 19.732L5.0616 19.7406C4.94206 19.745 4.82292 19.7243 4.71182 19.68C4.60071 19.6357 4.50009 19.5686 4.4164 19.4832C4.3327 19.3977 4.26778 19.2957 4.22579 19.1837C4.18379 19.0717 4.16566 18.9521 4.17253 18.8327L4.18367 18.7385L5.11727 13.2953L1.15759 9.44097C1.05519 9.34123 0.979359 9.21748 0.936982 9.08097C0.894606 8.94446 0.887032 8.79952 0.91495 8.65933C0.942868 8.51914 1.00539 8.38816 1.09683 8.2783C1.18828 8.16844 1.30573 8.08318 1.43853 8.03028L1.53531 7.99945L1.63296 7.97975L7.09669 7.18747L9.54034 2.23679C9.6085 2.08999 9.71813 1.96635 9.85572 1.88112C9.99331 1.79588 10.1528 1.75278 10.3146 1.75714ZM10.3146 4.56138V15.2473C10.3836 15.2473 10.4524 15.2557 10.5193 15.2721L10.6178 15.303L10.7138 15.3458L14.4508 17.3149L13.7347 13.1411C13.6994 12.9349 13.7408 12.7228 13.8512 12.545L13.9112 12.4602L13.9814 12.3831L17.0186 9.42555L12.8294 8.81914C12.6223 8.78908 12.4334 8.68427 12.2983 8.52449L12.2358 8.44141L12.1844 8.35062L10.3146 4.56138Z" fill="#FFA538"/>
</svg>
