<svg width="15" height="15" viewBox="0 0 15 15" fill="none" xmlns="http://www.w3.org/2000/svg">
<path d="M5.15937 4.70739L1.3517 5.25944L1.28426 5.27317C1.18217 5.30027 1.0891 5.35399 1.01455 5.42882C0.94001 5.50366 0.886663 5.59694 0.859961 5.69913C0.833259 5.80133 0.834158 5.90878 0.862566 6.01052C0.890975 6.11225 0.945875 6.20463 1.02166 6.27821L3.78013 8.96327L3.12961 12.756L3.12185 12.8217C3.1156 12.9273 3.13752 13.0326 3.18538 13.1269C3.23323 13.2213 3.3053 13.3012 3.39419 13.3585C3.48309 13.4158 3.58562 13.4485 3.6913 13.4532C3.79697 13.4578 3.90198 13.4343 3.99558 13.3851L7.401 11.5946L10.7987 13.3851L10.8583 13.4125C10.9569 13.4513 11.0639 13.4632 11.1685 13.447C11.2732 13.4308 11.3716 13.387 11.4537 13.3202C11.5358 13.2533 11.5987 13.1659 11.6359 13.0667C11.6731 12.9676 11.6832 12.8604 11.6652 12.756L11.0141 8.96327L13.7738 6.27761L13.8203 6.22688C13.8868 6.14498 13.9304 6.04691 13.9467 5.94267C13.9629 5.83844 13.9513 5.73175 13.9129 5.63349C13.8745 5.53522 13.8107 5.44889 13.7281 5.38329C13.6455 5.31769 13.547 5.27516 13.4425 5.26004L9.63488 4.70739L7.93276 1.25781C7.88351 1.15786 7.80726 1.0737 7.71265 1.01485C7.61804 0.955996 7.50884 0.924805 7.39742 0.924805C7.286 0.924805 7.1768 0.955996 7.08219 1.01485C6.98758 1.0737 6.91133 1.15786 6.86208 1.25781L5.15937 4.70739Z" fill="#FFA538"/>
</svg>
