<svg width="15" height="15" viewBox="0 0 15 15" fill="none" xmlns="http://www.w3.org/2000/svg">
<path d="M5.48298 4.70739L1.67531 5.25944L1.60787 5.27317C1.50578 5.30027 1.41271 5.35399 1.33816 5.42882C1.26362 5.50366 1.21027 5.59694 1.18357 5.69913C1.15687 5.80133 1.15777 5.90878 1.18617 6.01052C1.21458 6.11225 1.26948 6.20463 1.34527 6.27821L4.10374 8.96327L3.45321 12.756L3.44546 12.8217C3.43921 12.9273 3.46113 13.0326 3.50899 13.1269C3.55684 13.2213 3.62891 13.3012 3.7178 13.3585C3.8067 13.4158 3.90923 13.4485 4.0149 13.4532C4.12058 13.4578 4.22559 13.4343 4.31919 13.3851L7.72461 11.5946L11.1223 13.3851L11.182 13.4125C11.2805 13.4513 11.3875 13.4632 11.4921 13.447C11.5968 13.4308 11.6952 13.387 11.7773 13.3202C11.8595 13.2533 11.9223 13.1659 11.9595 13.0667C11.9967 12.9676 12.0068 12.8604 11.9888 12.756L11.3377 8.96327L14.0974 6.27761L14.1439 6.22688C14.2104 6.14498 14.254 6.04691 14.2703 5.94267C14.2866 5.83844 14.2749 5.73175 14.2365 5.63349C14.1981 5.53522 14.1343 5.44889 14.0517 5.38329C13.9691 5.31769 13.8706 5.27516 13.7662 5.26004L9.95848 4.70739L8.25637 1.25781C8.20712 1.15786 8.13087 1.0737 8.03626 1.01485C7.94165 0.955996 7.83245 0.924805 7.72103 0.924805C7.60961 0.924805 7.50041 0.955996 7.4058 1.01485C7.31119 1.0737 7.23494 1.15786 7.18569 1.25781L5.48298 4.70739Z" fill="#FFA538"/>
</svg>
