<svg width="16" height="15" viewBox="0 0 16 15" fill="none" xmlns="http://www.w3.org/2000/svg">
<path d="M5.80622 4.70739L1.99855 5.25944L1.93111 5.27317C1.82902 5.30027 1.73595 5.35399 1.6614 5.42882C1.58686 5.50366 1.53351 5.59694 1.50681 5.69913C1.48011 5.80133 1.48101 5.90878 1.50942 6.01052C1.53783 6.11225 1.59273 6.20463 1.66851 6.27821L4.42698 8.96327L3.77646 12.756L3.7687 12.8217C3.76245 12.9273 3.78437 13.0326 3.83223 13.1269C3.88008 13.2213 3.95215 13.3012 4.04105 13.3585C4.12994 13.4158 4.23248 13.4485 4.33815 13.4532C4.44382 13.4578 4.54883 13.4343 4.64243 13.3851L8.04785 11.5946L11.4455 13.3851L11.5052 13.4125C11.6037 13.4513 11.7108 13.4632 11.8154 13.447C11.92 13.4308 12.0184 13.387 12.1006 13.3202C12.1827 13.2533 12.2456 13.1659 12.2827 13.0667C12.3199 12.9676 12.33 12.8604 12.3121 12.756L11.661 8.96327L14.4206 6.27761L14.4672 6.22688C14.5337 6.14498 14.5773 6.04691 14.5935 5.94267C14.6098 5.83844 14.5981 5.73175 14.5597 5.63349C14.5213 5.53522 14.4576 5.44889 14.375 5.38329C14.2923 5.31769 14.1938 5.27516 14.0894 5.26004L10.2817 4.70739L8.57961 1.25781C8.53036 1.15786 8.45411 1.0737 8.3595 1.01485C8.26489 0.955996 8.15569 0.924805 8.04427 0.924805C7.93285 0.924805 7.82365 0.955996 7.72904 1.01485C7.63443 1.0737 7.55818 1.15786 7.50893 1.25781L5.80622 4.70739Z" fill="#FFA538"/>
</svg>
