<svg width="15" height="15" viewBox="0 0 15 15" fill="none" xmlns="http://www.w3.org/2000/svg">
<path d="M5.12995 4.70739L1.32228 5.25944L1.25484 5.27317C1.15275 5.30027 1.05968 5.35399 0.985135 5.42882C0.910591 5.50366 0.857244 5.59694 0.830542 5.69913C0.80384 5.80133 0.804739 5.90878 0.833147 6.01052C0.861556 6.11225 0.916456 6.20463 0.992241 6.27821L3.75071 8.96327L3.10019 12.756L3.09243 12.8217C3.08618 12.9273 3.1081 13.0326 3.15596 13.1269C3.20381 13.2213 3.27588 13.3012 3.36478 13.3585C3.45367 13.4158 3.55621 13.4485 3.66188 13.4532C3.76755 13.4578 3.87256 13.4343 3.96616 13.3851L7.37158 11.5946L10.7692 13.3851L10.8289 13.4125C10.9274 13.4513 11.0345 13.4632 11.1391 13.447C11.2437 13.4308 11.3422 13.387 11.4243 13.3202C11.5064 13.2533 11.5693 13.1659 11.6065 13.0667C11.6436 12.9676 11.6538 12.8604 11.6358 12.756L10.9847 8.96327L13.7444 6.27761L13.7909 6.22688C13.8574 6.14498 13.901 6.04691 13.9173 5.94267C13.9335 5.83844 13.9219 5.73175 13.8835 5.63349C13.8451 5.53522 13.7813 5.44889 13.6987 5.38329C13.6161 5.31769 13.5175 5.27516 13.4131 5.26004L9.60546 4.70739L7.90334 1.25781C7.85409 1.15786 7.77784 1.0737 7.68323 1.01485C7.58862 0.955996 7.47942 0.924805 7.368 0.924805C7.25658 0.924805 7.14738 0.955996 7.05277 1.01485C6.95816 1.0737 6.88191 1.15786 6.83266 1.25781L5.12995 4.70739Z" fill="#FFA538"/>
</svg>
