<svg width="15" height="15" viewBox="0 0 15 15" fill="none" xmlns="http://www.w3.org/2000/svg">
<path d="M5.45307 4.70739L1.6454 5.25944L1.57796 5.27317C1.47587 5.30027 1.3828 5.35399 1.30825 5.42882C1.23371 5.50366 1.18036 5.59694 1.15366 5.69913C1.12696 5.80133 1.12786 5.90878 1.15627 6.01052C1.18468 6.11225 1.23958 6.20463 1.31536 6.27821L4.07383 8.96327L3.42331 12.756L3.41555 12.8217C3.4093 12.9273 3.43122 13.0326 3.47908 13.1269C3.52693 13.2213 3.599 13.3012 3.6879 13.3585C3.77679 13.4158 3.87933 13.4485 3.985 13.4532C4.09067 13.4578 4.19568 13.4343 4.28928 13.3851L7.6947 11.5946L11.0924 13.3851L11.152 13.4125C11.2506 13.4513 11.3576 13.4632 11.4622 13.447C11.5669 13.4308 11.6653 13.387 11.7474 13.3202C11.8295 13.2533 11.8924 13.1659 11.9296 13.0667C11.9668 12.9676 11.9769 12.8604 11.9589 12.756L11.3078 8.96327L14.0675 6.27761L14.114 6.22688C14.1805 6.14498 14.2241 6.04691 14.2404 5.94267C14.2566 5.83844 14.245 5.73175 14.2066 5.63349C14.1682 5.53522 14.1044 5.44889 14.0218 5.38329C13.9392 5.31769 13.8407 5.27516 13.7362 5.26004L9.92858 4.70739L8.22646 1.25781C8.17721 1.15786 8.10096 1.0737 8.00635 1.01485C7.91174 0.955996 7.80254 0.924805 7.69112 0.924805C7.5797 0.924805 7.4705 0.955996 7.37589 1.01485C7.28128 1.0737 7.20503 1.15786 7.15578 1.25781L5.45307 4.70739Z" fill="#FFA538"/>
</svg>
