<svg width="32" height="33" viewBox="0 0 32 33" fill="none" xmlns="http://www.w3.org/2000/svg">
<g clip-path="url(#clip0_579_2007)">
<path d="M24 0.87207H8C3.58172 0.87207 0 4.45379 0 8.87207V24.8721C0 29.2903 3.58172 32.8721 8 32.8721H24C28.4183 32.8721 32 29.2903 32 24.8721V8.87207C32 4.45379 28.4183 0.87207 24 0.87207Z" fill="#039BE5"/>
<path d="M23.9849 10.2535C24.1252 9.333 23.2636 8.60642 22.4579 8.96578L6.41042 16.1233C5.83263 16.3811 5.8749 17.2701 6.47415 17.464L9.78354 18.5346C10.4152 18.7389 11.0991 18.6333 11.6506 18.2462L19.1118 13.0096C19.3368 12.8516 19.5821 13.1766 19.3899 13.378L14.0191 19.0031C13.4981 19.5488 13.6015 20.4734 14.2282 20.8726L20.2413 24.7033C20.9158 25.1329 21.7834 24.7013 21.9095 23.8734L23.9849 10.2535Z" fill="white"/>
</g>
<defs>
<clipPath id="clip0_579_2007">
<rect width="32" height="32" fill="white" transform="translate(0 0.87207)"/>
</clipPath>
</defs>
</svg>
