<svg width="17" height="18" viewBox="0 0 17 18" fill="none" xmlns="http://www.w3.org/2000/svg">
<path fill-rule="evenodd" clip-rule="evenodd" d="M12.2494 7.78248C12.2494 9.20802 11.6831 10.5752 10.6751 11.5832C9.66711 12.5912 8.29996 13.1575 6.87442 13.1575C5.44888 13.1575 4.08173 12.5912 3.07372 11.5832C2.06571 10.5752 1.49942 9.20802 1.49942 7.78248C1.49942 6.35694 2.06571 4.98979 3.07372 3.98178C4.08173 2.97377 5.44888 2.40748 6.87442 2.40748C8.29996 2.40748 9.66711 2.97377 10.6751 3.98178C11.6831 4.98979 12.2494 6.35694 12.2494 7.78248ZM11.1769 13.145C9.80535 14.2452 8.06435 14.7781 6.31192 14.6341C4.55949 14.4901 2.92884 13.6801 1.7553 12.3707C0.581755 11.0613 -0.0454819 9.35203 0.00257031 7.59435C0.0506225 5.83667 0.770311 4.1642 2.01364 2.92087C3.25698 1.67754 4.92944 0.957849 6.68712 0.909797C8.4448 0.861745 10.1541 1.48898 11.4635 2.66253C12.7729 3.83607 13.5829 5.46672 13.7269 7.21915C13.8709 8.97158 13.338 10.7126 12.2378 12.0841L15.9461 15.7941C16.0198 15.8628 16.0789 15.9456 16.1199 16.0376C16.1609 16.1296 16.1829 16.2289 16.1847 16.3296C16.1865 16.4303 16.1679 16.5304 16.1302 16.6237C16.0925 16.7171 16.0363 16.802 15.9651 16.8732C15.8939 16.9444 15.8091 17.0005 15.7157 17.0383C15.6223 17.076 15.5223 17.0945 15.4216 17.0927C15.3209 17.091 15.2215 17.0689 15.1295 17.0279C15.0376 16.9869 14.9548 16.9278 14.8861 16.8541L11.1769 13.145Z" fill="#0F172A"/>
</svg>
