<svg width="32" height="33" viewBox="0 0 32 33" fill="none" xmlns="http://www.w3.org/2000/svg">
<g clip-path="url(#clip0_579_2012)">
<path d="M24 0.87207H8C3.58172 0.87207 0 4.45379 0 8.87207V24.8721C0 29.2903 3.58172 32.8721 8 32.8721H24C28.4183 32.8721 32 29.2903 32 24.8721V8.87207C32 4.45379 28.4183 0.87207 24 0.87207Z" fill="#0077FF"/>
<path d="M16.8932 22.8721C10.06 22.8721 6.1624 18.3676 6 10.8721H9.42286C9.53529 16.3736 12.0587 18.7039 14.0575 19.1844V10.8721H17.2805V15.6168C19.2542 15.4126 21.3279 13.2505 22.0275 10.8721H25.2505C24.9869 12.1056 24.4614 13.2735 23.7069 14.3028C22.9524 15.3321 21.9852 16.2006 20.8657 16.8541C22.1153 17.4511 23.2191 18.2962 24.1041 19.3336C24.9891 20.3709 25.6353 21.577 26 22.8721H22.4522C22.1248 21.7472 21.4594 20.7402 20.5394 19.9774C19.6194 19.2145 18.4858 18.7298 17.2805 18.5838V22.8721H16.8932Z" fill="white"/>
</g>
<defs>
<clipPath id="clip0_579_2012">
<rect width="32" height="32" fill="white" transform="translate(0 0.87207)"/>
</clipPath>
</defs>
</svg>
