<svg width="16" height="16" viewBox="0 0 16 16" fill="none" xmlns="http://www.w3.org/2000/svg">
<path fill-rule="evenodd" clip-rule="evenodd" d="M3.20215 4.8C3.20215 2.14903 5.35118 0 8.00215 0C10.6531 0 12.8022 2.14903 12.8022 4.8C12.8022 7.45096 10.6531 9.6 8.00215 9.6C5.35118 9.6 3.20215 7.45096 3.20215 4.8Z" fill="white"/>
<path fill-rule="evenodd" clip-rule="evenodd" d="M2.74617 11.9222C4.04611 11.3772 5.78005 11.2002 8.00141 11.2002C10.2182 11.2002 11.9495 11.3765 13.2483 11.9187C14.6424 12.5006 15.4981 13.4892 15.9542 14.9272C16.1237 15.4616 15.7229 16.0002 15.1688 16.0002H0.829085C0.277269 16.0002 -0.121155 15.464 0.0469332 14.9325C0.501709 13.4947 1.35437 12.5056 2.74617 11.9222Z" fill="white"/>
</svg>
