<svg width="31" height="28" viewBox="0 0 31 28" fill="none" xmlns="http://www.w3.org/2000/svg">
<path d="M5.40564 0.03125C6.77138 0.03125 7.8798 1.13968 7.8798 2.50541V24.7729C7.8798 26.1386 6.77138 27.2471 5.40564 27.2471H2.94508C1.57811 27.2471 0.470917 26.1386 0.470917 24.7729V2.50541C0.470917 1.13968 1.57811 0.03125 2.94508 0.03125H5.40564ZM14.0652 0.03125C15.431 0.03125 16.5394 1.13968 16.5394 2.50541V24.7729C16.5394 26.1386 15.431 27.2471 14.0652 27.2471H11.5972C10.2303 27.2471 9.12307 26.1386 9.12307 24.7729V2.50541C9.12307 1.13968 10.2303 0.03125 11.5972 0.03125H14.0652ZM25.2984 4.41448L30.0735 23.5682C30.4039 24.8931 29.596 26.2366 28.2711 26.5681L25.8427 27.1731C24.5178 27.5034 23.1743 26.6968 22.844 25.3707L18.0689 6.21691C17.7374 4.89076 18.5452 3.54852 19.8701 3.21698L22.2985 2.61205C23.6234 2.28051 24.9669 3.08833 25.2984 4.41448Z" fill="#183B32"/>
</svg>
