<svg width="31" height="28" viewBox="0 0 31 28" fill="none" xmlns="http://www.w3.org/2000/svg">
<path d="M5.40564 0.391602C6.77138 0.391602 7.8798 1.50003 7.8798 2.86577V25.1332C7.8798 26.499 6.77138 27.6074 5.40564 27.6074H2.94508C1.57811 27.6074 0.470917 26.499 0.470917 25.1332V2.86577C0.470917 1.50003 1.57811 0.391602 2.94508 0.391602H5.40564ZM14.0652 0.391602C15.431 0.391602 16.5394 1.50003 16.5394 2.86577V25.1332C16.5394 26.499 15.431 27.6074 14.0652 27.6074H11.5972C10.2303 27.6074 9.12307 26.499 9.12307 25.1332V2.86577C9.12307 1.50003 10.2303 0.391602 11.5972 0.391602H14.0652ZM25.2984 4.77483L30.0735 23.9286C30.4039 25.2535 29.596 26.597 28.2711 26.9285L25.8427 27.5334C24.5178 27.8637 23.1743 27.0572 22.844 25.731L18.0689 6.57726C17.7374 5.25111 18.5452 3.90887 19.8701 3.57734L22.2985 2.9724C23.6234 2.64086 24.9669 3.44868 25.2984 4.77483Z" fill="#183B32"/>
</svg>
