<svg width="32" height="33" viewBox="0 0 32 33" fill="none" xmlns="http://www.w3.org/2000/svg">
<g clip-path="url(#clip0_579_807)">
<path d="M24 0.320312H8C3.58172 0.320312 0 3.90203 0 8.32031V24.3203C0 28.7386 3.58172 32.3203 8 32.3203H24C28.4183 32.3203 32 28.7386 32 24.3203V8.32031C32 3.90203 28.4183 0.320312 24 0.320312Z" fill="#039BE5"/>
<path d="M23.9849 9.70178C24.1252 8.78124 23.2636 8.05466 22.4579 8.41402L6.41042 15.5715C5.83263 15.8293 5.8749 16.7183 6.47415 16.9122L9.78354 17.9828C10.4152 18.1871 11.0991 18.0815 11.6506 17.6944L19.1118 12.4578C19.3368 12.2998 19.5821 12.6248 19.3899 12.8262L14.0191 18.4513C13.4981 18.997 13.6015 19.9216 14.2282 20.3208L20.2413 24.1515C20.9158 24.5811 21.7834 24.1495 21.9095 23.3216L23.9849 9.70178Z" fill="white"/>
</g>
<defs>
<clipPath id="clip0_579_807">
<rect width="32" height="32" fill="white" transform="translate(0 0.320312)"/>
</clipPath>
</defs>
</svg>
