<svg width="32" height="33" viewBox="0 0 32 33" fill="none" xmlns="http://www.w3.org/2000/svg">
<g clip-path="url(#clip0_579_812)">
<path d="M24 0.320312H8C3.58172 0.320312 0 3.90203 0 8.32031V24.3203C0 28.7386 3.58172 32.3203 8 32.3203H24C28.4183 32.3203 32 28.7386 32 24.3203V8.32031C32 3.90203 28.4183 0.320312 24 0.320312Z" fill="#0077FF"/>
<path d="M16.8932 22.3203C10.06 22.3203 6.1624 17.8158 6 10.3203H9.42286C9.53529 15.8218 12.0587 18.1521 14.0575 18.6326V10.3203H17.2805V15.065C19.2542 14.8608 21.3279 12.6987 22.0275 10.3203H25.2505C24.9869 11.5538 24.4614 12.7217 23.7069 13.751C22.9524 14.7803 21.9852 15.6488 20.8657 16.3023C22.1153 16.8993 23.2191 17.7444 24.1041 18.7818C24.9891 19.8191 25.6353 21.0252 26 22.3203H22.4522C22.1248 21.1954 21.4594 20.1884 20.5394 19.4256C19.6194 18.6627 18.4858 18.178 17.2805 18.032V22.3203H16.8932Z" fill="white"/>
</g>
<defs>
<clipPath id="clip0_579_812">
<rect width="32" height="32" fill="white" transform="translate(0 0.320312)"/>
</clipPath>
</defs>
</svg>
